<?xml version="1.0" standalone="no"?><!DOCTYPE svg PUBLIC "-//W3C//DTD SVG 1.1//EN" "http://www.w3.org/Graphics/SVG/1.1/DTD/svg11.dtd"><svg class="icon" height="512" viewBox="0 0 1024 1024" version="1.1" xmlns="http://www.w3.org/2000/svg"><path d="M988.339912 896.943163 872.089162 896.943163 872.089162 1007.847743C872.089162 1016.606361 864.581775 1023.772503 855.330248 1023.772503L811.764654 1023.772503C802.588958 1023.772503 795.081571 1016.606361 795.081571 1007.847743L795.081571 896.943163 678.754989 896.943163C669.503462 896.943163 661.996075 889.852853 661.996075 880.980487L661.996075 839.538194C661.996075 830.627911 669.503462 823.499685 678.754989 823.499685L795.081571 823.499685 795.081571 712.633021C795.081571 703.836487 802.588958 696.670345 811.764654 696.670345L855.330248 696.670345C864.581775 696.670345 872.089162 703.836487 872.089162 712.633021L872.089162 823.499685 988.339912 823.499685C997.591439 823.499685 1005.022994 830.703743 1005.098826 839.538194L1005.098826 880.980487C1005.098826 889.852853 997.591439 896.943163 988.339912 896.943163ZM623.359573 564.456919C665.977265 577.727552 705.978746 596.875181 742.26445 620.913985 750.416411 626.298071 755.76258 635.360018 755.686748 645.711112 755.686748 662.090865 742.036953 675.437331 725.278039 675.437331 718.604806 675.437331 712.424483 673.276114 707.381642 669.636168L707.30581 669.787833C643.075943 627.435554 565.689192 602.714259 482.387529 602.714259 260.085459 602.714259 79.794424 778.87244 79.794424 996.093753 78.770689 1011.601437 65.424223 1023.924168 49.309883 1023.924168 33.157626 1023.924168 20.076573 1011.601437 19.052838 996.093753 18.977006 996.093753 18.901174 993.705039 18.901174 993.477543 20.076573 792.408487 155.247454 622.506461 341.529233 564.456919 243.440293 514.673085 176.404636 414.574592 176.404636 299.044248 176.404636 133.843818 313.39549 0 482.463361 0 651.531233 0 788.560003 133.843818 788.560003 299.044248 788.560003 414.49876 721.486429 514.673085 623.359573 564.456919ZM482.463361 59.755767C347.216648 59.755767 237.601214 166.906654 237.601214 299.044248 237.601214 431.181842 347.216648 538.294812 482.463361 538.294812 617.710075 538.294812 727.363424 431.181842 727.363424 299.044248 727.363424 166.906654 617.710075 59.755767 482.463361 59.755767Z" /></svg>